# xmcd CD database file
#
# Track frame offsets:
#	150
#	13189
#	26981
#	39865
#	54534
#	68765
#	82436
#	97005
#	110585
#	123783
#	138130
#	151407
#	163616
#	176972
#	190230
#	203294
#	216577
#	229537
#	243528
#	257099
#	271236
#	285897
#	299881
#	312507
#	324157
#	336740
#
# Disc length: 4673 seconds
#
# Revision: 0
# Processed by: cddbd v1.5.2PL0 Copyright (c) Steve Scherf et al.
# Submitted via: CDex 1.51
#
DISCID=8b123f1a
DTITLE=Harry Roy - Volume Three - 1927 - 1933
DYEAR=1933
DGENRE=Jazz
TTITLE0=How Could Red Riding Hood
TTITLE1=Take Yuor Finger Out Of your Mouth
TTITLE2=If I Didn't Know Your Husband
TTITLE3=Crazy Words, Crazy Tune
TTITLE4=Who Do You Love
TTITLE5=I've Got It (But It Don't Do Me No Good)
TTITLE6=Without Love
TTITLE7=You Can't Stop Me From Loving You
TTITLE8=Little Girl
TTITLE9=Song Of Happiness
TTITLE10=The Queen (Was In The Parlour)
TTITLE11=Brighter Than The Sun
TTITLE12=What More Can I Ask
TTITLE13=I Wish I Knew A Bigger Word Than Love
TTITLE14=The Wise Old Owl Said 'Hoo'
TTITLE15=The World Is So Small
TTITLE16=Becky, Play Your Violin
TTITLE17=Ma (She's Making Eyes At Me)
TTITLE18=It's No Use, I'm In Love
TTITLE19=City Pity Me
TTITLE20=You've Got Me Crying Again
TTITLE21=Stormy Weather
TTITLE22=Jog Along
TTITLE23=Hurricane Harry
TTITLE24=There's A New Day Comin'
TTITLE25=Down In The Valley
EXTD=YEAR: 1933
EXTT0=
EXTT1=
EXTT2=
EXTT3=
EXTT4=
EXTT5=
EXTT6=
EXTT7=
EXTT8=
EXTT9=
EXTT10=
EXTT11=
EXTT12=
EXTT13=
EXTT14=
EXTT15=
EXTT16=
EXTT17=
EXTT18=
EXTT19=
EXTT20=
EXTT21=
EXTT22=
EXTT23=
EXTT24=
EXTT25=
PLAYORDER=
